<svg width="24" height="24" viewBox="0 0 24 24" fill="none" xmlns="http://www.w3.org/2000/svg">
<path d="M21.2365 11.9932C21.2365 17.0981 17.0981 21.2365 11.9932 21.2365C8.32387 21.2365 5.15388 19.0984 3.66121 16L2 19M2.75 11.9932C2.75 6.88834 6.88834 2.75 11.9932 2.75C15.6225 2.75 18.7632 4.84161 20.2757 7.88514L22 5" stroke="currentColor" stroke-width="1.5" stroke-linejoin="round"/>
<mask id="path-2-inside-1_4432_40578" fill="white">
<path fill-rule="evenodd" clip-rule="evenodd" d="M14.9806 15.9999C14.9871 16 14.9935 16 15 16C16.933 16 18.5 14.433 18.5 12.5C18.5 10.567 16.933 9 15 9L14.965 9.00017C14.2734 7.80448 12.9806 7 11.5 7C9.58622 7 7.98635 8.344 7.59276 10.1396C6.37937 10.5241 5.5 11.6594 5.5 13C5.5 14.6569 6.84315 16 8.5 16C8.50598 16 8.51196 16 8.51793 15.9999H14.9806Z"/>
</mask>
<path d="M14.9806 15.9999L14.9888 14.4999H14.9806V15.9999ZM15 9V7.49998L14.9926 7.50002L15 9ZM14.965 9.00017L13.6665 9.7512L14.1022 10.5045L14.9724 10.5002L14.965 9.00017ZM7.59276 10.1396L8.04588 11.5695L8.87234 11.3077L9.05797 10.4608L7.59276 10.1396ZM8.51793 15.9999V14.4999L8.50907 14.5L8.51793 15.9999ZM14.9724 17.4999C14.9817 17.5 14.9909 17.5 15 17.5V14.5C14.9962 14.5 14.9925 14.5 14.9888 14.5L14.9724 17.4999ZM15 17.5C17.7614 17.5 20 15.2614 20 12.5H17C17 13.6046 16.1046 14.5 15 14.5V17.5ZM20 12.5C20 9.73858 17.7614 7.5 15 7.5V10.5C16.1046 10.5 17 11.3954 17 12.5H20ZM14.9926 7.50002L14.9575 7.50019L14.9724 10.5002L15.0074 10.5L14.9926 7.50002ZM16.2634 8.24915C15.3147 6.60898 13.5378 5.5 11.5 5.5V8.5C12.4235 8.5 13.232 8.99997 13.6665 9.7512L16.2634 8.24915ZM11.5 5.5C8.86671 5.5 6.66882 7.34911 6.12754 9.81846L9.05797 10.4608C9.30389 9.33889 10.3057 8.5 11.5 8.5V5.5ZM7.13963 8.7097C5.32095 9.28602 4 10.9868 4 13H7C7 12.332 7.43778 11.7622 8.04588 11.5695L7.13963 8.7097ZM4 13C4 15.4853 6.01472 17.5 8.5 17.5V14.5C7.67157 14.5 7 13.8284 7 13H4ZM8.5 17.5C8.50885 17.5 8.51778 17.5 8.52679 17.4999L8.50907 14.5C8.50613 14.5 8.50311 14.5 8.5 14.5V17.5ZM14.9806 14.4999H8.51793V17.4999H14.9806V14.4999Z" fill="currentColor" mask="url(#path-2-inside-1_4432_40578)"/>
</svg>