<svg width="24" height="24" viewBox="0 0 24 24" fill="none" xmlns="http://www.w3.org/2000/svg">
<path d="M12 5.0498C14.6234 5.0498 16.75 7.17645 16.75 9.7998V22C16.7499 22.138 16.638 22.25 16.5 22.25H7.5C7.36199 22.25 7.25011 22.138 7.25 22V9.7998C7.25 7.17645 9.37665 5.0498 12 5.0498Z" stroke="currentColor" stroke-width="1.5"/>
<path d="M7.59961 10.9004H16.3996" stroke="currentColor" stroke-width="1.5"/>
<path d="M7.59961 15.2998H16.3996" stroke="currentColor" stroke-width="1.5"/>
<mask id="mask0_387_51636" style="mask-type:alpha" maskUnits="userSpaceOnUse" x="8" y="1" width="8" height="5">
<path d="M13.1012 5.95V4.3V2.65H10.9012V5.95H8.70117V1H15.3012V5.95H13.1012Z" fill="black"/>
</mask>
<g mask="url(#mask0_387_51636)">
<path d="M10.252 1.75H13.752C13.89 1.75 14.002 1.86193 14.002 2V5.2002H10.002V2C10.002 1.86193 10.1139 1.75 10.252 1.75Z" stroke="currentColor" stroke-width="1.5"/>
</g>
<path d="M6.5 3.2002H9.8" stroke="currentColor" stroke-width="1.5"/>
<path d="M6.5 1V5.4" stroke="currentColor" stroke-width="1.5"/>
<path d="M14.1992 3.2002H16.3992" stroke="currentColor" stroke-width="1.5"/>
</svg>